<svg xmlns="http://www.w3.org/2000/svg" version="1.0" xmlns:xlink="http://www.w3.org/1999/xlink" viewBox="0 0 340 250" color-interpolation-filters="sRGB" style="margin:auto"><rect width="100%" height="100%" fill="none" class="background"/><g fill="#fff" class="icon-text-wrapper icon-svg-group iconsvg"><g transform="translate(47 1.904)" class="iconsvg-imagesvg"><path class="image-rect" fill="none" d="M0 0h246v246.192H0z"/><svg width="246" height="246.192" class="image-svg-svg primary" style="overflow:visible"><svg xmlns="http://www.w3.org/2000/svg" viewBox="0.021 -0.005 158.491 158.614"><path d="M81.23 158.59c-18.77 0-34.12-4.88-47.84-14.65a78.11 78.11 0 0 1-26.33-32.06 79.09 79.09 0 0 1 1.6-68.56 79.58 79.58 0 0 1 11.71-17.07A78.35 78.35 0 0 1 49.25 5.87 76.55 76.55 0 0 1 72.88.25a80.64 80.64 0 0 1 23.65 1.61 16.39 16.39 0 0 1 8.16 27.19 75.34 75.34 0 0 0-13 20.67A73.69 73.69 0 0 0 86 73.43 75.92 75.92 0 0 0 105.19 130a16.46 16.46 0 0 1-9.9 27c-5.29 1-10.57 1.74-14.06 1.59zM26 79.28a44.8 44.8 0 0 1 .9-9.81 52.79 52.79 0 0 1 19.2-32.4C58.52 27 72.78 23.08 88.67 25.33a1.71 1.71 0 0 0 1.7-.52c.58-.69 1.22-1.33 1.74-2.06a5.77 5.77 0 0 0 1.19-4.41c-.56-3.3-2.91-5.29-6.54-5.33-2.81 0-5.61-.21-8.43-.12a63 63 0 0 0-15.81 2.59 65.16 65.16 0 0 0-29.78 18.35A66.39 66.39 0 0 0 22.07 49 65.58 65.58 0 0 0 15 75.32a68.21 68.21 0 0 0 1.17 17.25 64.59 64.59 0 0 0 8.25 21.08 66.32 66.32 0 0 0 63.13 31.88 6.06 6.06 0 0 0 5.42-8.34c-.47-1.26-1.53-2.05-2.27-3.1a2 2 0 0 0-2.25-.85 51.16 51.16 0 0 1-18.3-.43A54.63 54.63 0 0 1 26 79.28zm14.8 1.15a33.73 33.73 0 0 0 2.32 12.77 41.48 41.48 0 0 0 21.86 24 40.53 40.53 0 0 0 15 3.78c1 .06 1.17-.2.68-1.11a78.36 78.36 0 0 1-4.83-10.29 2.09 2.09 0 0 0-1.55-1.42 29.46 29.46 0 0 1-18.16-13.88 29.75 29.75 0 0 1 17.81-43.7 2.63 2.63 0 0 0 2-1.78 77.8 77.8 0 0 1 4.74-10.08c.52-.94.42-1.17-.7-1.08a44.49 44.49 0 0 0-4.88.58 41.12 41.12 0 0 0-24.08 13.7c-6.75 7.82-10.24 16.86-10.21 28.51zm30.1 9.65a85.66 85.66 0 0 1-.71-10.87 102.07 102.07 0 0 1 .66-10.73c-5.43 5.52-5.22 16.36.05 21.6z" fill="#2FFF67"/><path d="M129.58 30.13A16.11 16.11 0 0 1 125.41 41a58 58 0 0 0-12.61 28.23 61.17 61.17 0 0 0 6.29 38.89 59.41 59.41 0 0 0 7.42 10.95 13.27 13.27 0 0 1 3 8.33c.28 7.58-2.69 13.87-8.19 19a15.65 15.65 0 0 1-6.43 3.52c-.36.1-.82.36-1.06-.09s.27-.6.5-.84c6-6.35 6.3-15.43.57-21.88a73.52 73.52 0 0 1-13.9-22.69 68.7 68.7 0 0 1-4.29-18.69 70.19 70.19 0 0 1 6.81-37.36A73.09 73.09 0 0 1 115 31.44a15.76 15.76 0 0 0 2.49-17.3 16.08 16.08 0 0 0-3.11-4.51c-.25-.26-.77-.51-.48-.93s.73-.11 1.09 0a18.57 18.57 0 0 1 9.38 6.72 24.22 24.22 0 0 1 5.21 14.71z" fill="#40D3FF"/><path d="M147.21 45.73c.17 3.25-1.15 6.32-2.87 9.33a45.9 45.9 0 0 0-5.8 18.07 50.66 50.66 0 0 0 4.52 28 29.23 29.23 0 0 0 1.76 3.32c2.49 3.89 2.83 8.13 2.07 12.53a24 24 0 0 1-7.56 13.83c-.49.45-1 .85-1.54 1.27-.15.13-.33.25-.52.1s-.13-.35-.07-.54.14-.36.21-.54a15.84 15.84 0 0 0-1.2-14.62c-1.33-2.16-3-4.09-4.4-6.22a55.39 55.39 0 0 1-8.56-23.12 57.12 57.12 0 0 1 5.91-34.35 66.88 66.88 0 0 1 6.35-9.7 15 15 0 0 0 3.05-10.21 15.94 15.94 0 0 0-1.17-5.46c-.12-.28-.38-.62-.07-.86s.65.1.91.3a21.88 21.88 0 0 1 5.52 6.33 23.39 23.39 0 0 1 3.46 12.54zm7.61 57.27c-1.54-5.22-4.26-10-5.21-15.33a46.19 46.19 0 0 1 3.57-27.79c.32-.71.61-1.44.86-2.18s.37-1.42.56-2.17c1.67 1.64 3.82 15.3 3.91 23.67a75.06 75.06 0 0 1-3.69 23.8z" fill="#40D3FF"/></svg></svg></g></g></svg>